<?xml version="1.0" standalone="no"?>
<!DOCTYPE svg PUBLIC "-//W3C//DTD SVG 20010904//EN"
 "http://www.w3.org/TR/2001/REC-SVG-20010904/DTD/svg10.dtd">
<svg version="1.0" xmlns="http://www.w3.org/2000/svg"
 width="512.000000pt" height="512.000000pt" viewBox="0 0 512.000000 512.000000"
 preserveAspectRatio="xMidYMid meet">

<g transform="translate(0.000000,512.000000) scale(0.100000,-0.100000)"
fill="#000000" stroke="none">
<path d="M1984 4131 c-55 -24 -77 -89 -53 -156 12 -31 9 -35 -114 -197 -69
-91 -137 -172 -151 -181 -44 -29 -108 -40 -157 -27 -34 9 -64 32 -135 102
l-92 89 22 39 c20 36 20 41 6 82 -43 123 -222 82 -206 -47 3 -30 14 -48 39
-70 32 -29 36 -41 92 -265 32 -129 65 -243 73 -252 14 -17 60 -18 706 -18 533
0 697 3 716 13 23 11 31 36 86 254 57 223 64 243 93 269 23 21 34 40 37 69 16
129 -163 170 -206 47 -14 -41 -14 -46 6 -82 l22 -39 -92 -89 c-71 -70 -101
-93 -135 -102 -49 -13 -113 -2 -158 27 -14 10 -82 92 -150 182 -96 129 -123
170 -117 186 3 11 9 39 11 61 4 35 0 46 -24 73 -30 34 -82 48 -119 32z"/>
<path d="M1322 3108 c-8 -8 -12 -46 -12 -105 0 -81 2 -94 19 -103 13 -6 250
-10 698 -10 598 0 681 2 701 16 20 14 22 24 22 99 0 63 -4 88 -16 99 -14 14
-92 16 -708 16 -525 0 -695 -3 -704 -12z"/>
<path d="M795 2748 c-171 -32 -296 -166 -320 -344 l-6 -51 82 -7 c91 -7 98 -4
99 49 1 39 34 113 68 148 65 69 186 95 293 63 100 -29 171 -124 170 -229 0
-140 -81 -245 -402 -520 -235 -201 -320 -315 -339 -454 l-7 -53 464 0 463 0 0
85 0 85 -340 2 -340 3 27 38 c15 21 106 107 203 192 207 181 354 331 392 401
114 211 51 454 -144 555 -86 44 -243 60 -363 37z"/>
<path d="M1890 2747 c-74 -21 -114 -45 -167 -98 -118 -117 -173 -309 -173
-599 0 -463 141 -704 419 -718 255 -14 411 124 474 417 30 140 29 454 0 593
-41 187 -127 319 -249 379 -57 28 -77 32 -162 35 -60 3 -114 -1 -142 -9z m210
-148 c31 -13 63 -38 86 -66 77 -93 99 -207 98 -498 -2 -290 -27 -404 -108
-488 -52 -52 -105 -77 -166 -77 -122 0 -209 82 -252 238 -19 68 -22 104 -22
322 -1 255 5 307 46 419 23 62 76 124 127 151 49 26 129 26 191 -1z"/>
<path d="M3088 2558 c-211 -297 -458 -648 -485 -687 -19 -28 -23 -47 -23 -107
l0 -74 308 -2 307 -3 3 -167 2 -168 85 0 85 0 0 170 0 170 95 0 96 0 -3 78 -3
77 -92 3 -93 3 -2 452 -3 452 -67 3 -67 3 -143 -203z m109 -705 c-2 -2 -101
-2 -220 -1 l-215 3 100 145 c56 80 153 219 217 310 l116 165 3 -309 c1 -170 1
-311 -1 -313z"/>
<path d="M4060 2746 c-62 -17 -104 -41 -152 -84 -55 -50 -85 -100 -104 -175
-38 -147 16 -278 145 -350 l43 -25 -61 -27 c-142 -64 -215 -215 -190 -392 25
-175 155 -314 330 -353 93 -21 249 -9 333 25 162 66 271 249 252 426 -13 131
-77 230 -185 288 -34 18 -61 34 -61 36 0 3 17 13 38 24 45 23 103 83 128 131
25 50 30 162 10 230 -33 111 -127 204 -242 240 -76 23 -211 26 -284 6z m228
-142 c47 -19 88 -58 114 -108 16 -31 19 -54 16 -112 -3 -63 -7 -78 -34 -111
-16 -21 -55 -51 -85 -66 -46 -25 -62 -28 -114 -24 -136 10 -215 92 -215 223 0
126 92 212 228 214 29 0 69 -7 90 -16z m28 -593 c108 -48 164 -137 164 -262 0
-61 -5 -85 -26 -127 -44 -89 -127 -142 -235 -150 -95 -7 -159 17 -224 82 -78
78 -102 183 -69 295 25 84 104 157 199 182 48 13 138 3 191 -20z"/>
</g>
</svg>
